<svg xmlns="http://www.w3.org/2000/svg" width="15" height="15" viewBox="0 0 512 512"><defs><style>.cls-1{fill:#2ecc71;}.cls-2{fill:#27ae60;}</style></defs><g id="katman_2" data-name="katman 2"><g id="katman_1-2" data-name="katman 1"><path class="cls-1" d="M256,504.5A248.67,248.67,0,0,1,7.5,256,248.67,248.67,0,0,1,256,7.5,248.67,248.67,0,0,1,504.5,256,248.67,248.67,0,0,1,256,504.5Z"/><path class="cls-2" d="M256,15A241.18,241.18,0,0,1,497,256,241.18,241.18,0,0,1,256,497,241.18,241.18,0,0,1,15,256,241.18,241.18,0,0,1,256,15m0-15A255.93,255.93,0,0,0,75,437,255.76,255.76,0,0,0,437,437,255.76,255.76,0,0,0,437,75,254,254,0,0,0,256,0Z"/></g></g></svg>