<svg width="16" height="16" viewBox="0 0 16 16" fill="none" xmlns="http://www.w3.org/2000/svg">
<path d="M8.68 13.8467C8.68 14.2733 9.07333 14.6 9.48667 14.5067C10.2333 14.3333 10.94 14.04 11.5667 13.64C11.92 13.4133 11.9733 12.9067 11.6733 12.6067C11.46 12.3933 11.12 12.34 10.8667 12.5C10.3533 12.8267 9.78667 13.0667 9.18 13.2C8.88 13.2667 8.68 13.54 8.68 13.8467ZM2.68667 7.99998C2.68667 5.47332 4.45333 3.35332 6.82 2.80665C7.11333 2.73998 7.32 2.46665 7.32 2.16665C7.32 1.73998 6.92 1.41332 6.50667 1.51332C3.55333 2.19332 1.35333 4.83998 1.35333 7.99998C1.35333 11.16 3.55333 13.8067 6.50667 14.4933C6.92 14.5933 7.32 14.2667 7.32 13.84C7.32 13.5333 7.11333 13.2667 6.82 13.2C4.45333 12.6467 2.68667 10.5267 2.68667 7.99998ZM13.86 7.33332C14.2867 7.33332 14.6133 6.93998 14.52 6.52665C14.3467 5.77998 14.0533 5.07998 13.6533 4.44665C13.4267 4.08665 12.92 4.03998 12.62 4.33998C12.4067 4.55332 12.3533 4.89332 12.52 5.14665C12.8467 5.65332 13.0867 6.21998 13.22 6.83332C13.28 7.13332 13.5533 7.33332 13.86 7.33332ZM11.5667 2.36665C10.9333 1.96665 10.2333 1.67332 9.48667 1.49998C9.07333 1.40665 8.68 1.73332 8.68 2.15332C8.68 2.45332 8.88 2.73332 9.17333 2.79332C9.78 2.92665 10.3533 3.17332 10.86 3.49332C11.12 3.65332 11.4533 3.60665 11.6667 3.38665C11.9733 3.09332 11.9267 2.59332 11.5667 2.36665ZM12.6133 11.66C12.9133 11.96 13.42 11.9133 13.6467 11.5533C14.0467 10.9267 14.34 10.22 14.5133 9.47332C14.6067 9.05998 14.28 8.66665 13.86 8.66665C13.56 8.66665 13.28 8.86665 13.22 9.15998C13.0867 9.76665 12.84 10.34 12.52 10.8467C12.3467 11.1067 12.4 11.4467 12.6133 11.66Z" fill="#F89F27"/>
<path d="M10.6667 7.40002C10.6667 5.74002 9.40001 4.66669 8.00001 4.66669C6.60001 4.66669 5.33334 5.74002 5.33334 7.40002C5.33334 8.40669 6.06668 9.58669 7.54001 10.9334C7.80001 11.1734 8.19334 11.1734 8.46001 10.9334C9.93334 9.58002 10.6667 8.40669 10.6667 7.40002ZM8.00001 8.00002C7.60668 8.00002 7.28668 7.68002 7.28668 7.28669C7.28668 6.89335 7.60668 6.57335 8.00001 6.57335C8.39334 6.57335 8.71334 6.89335 8.71334 7.28669C8.71334 7.68002 8.39334 8.00002 8.00001 8.00002Z" fill="#F89F27"/>
</svg>
