<svg xmlns="http://www.w3.org/2000/svg" viewBox="0 0 512 512"><defs><style>.cls-1{fill:#27ae60;}.cls-2{fill:#2ecc71;}.cls-3{fill:#ecf0f1;}</style></defs><g id="katman_2" data-name="katman 2"><g id="katman_1-2" data-name="katman 1"><path class="cls-1" d="M256,502A246,246,0,0,1,82.05,82.05,246,246,0,0,1,430,430,244.4,244.4,0,0,1,256,502Z"/><path class="cls-2" d="M256,20a236.06,236.06,0,0,1,91.86,453.46A236.07,236.07,0,0,1,164.14,38.54,234.56,234.56,0,0,1,256,20m0-20C114.62,0,0,114.62,0,256S114.62,512,256,512,512,397.38,512,256,397.38,0,256,0Z"/><path class="cls-1" d="M296.72,232.77A40.76,40.76,0,1,0,256,273.53,40.81,40.81,0,0,0,296.72,232.77Z"/><path class="cls-3" d="M256.32,114.8H256a117,117,0,0,0-70.87,23.66,7.5,7.5,0,0,0,9,12A102,102,0,0,1,256,129.8h.28a102.81,102.81,0,0,1,102.6,106.76c-1,31.65-15.71,66.46-42.4,100.65-22.09,28.31-46.91,49.2-58.09,57.08a4.06,4.06,0,0,1-4.7,0c-11.52-8.22-37-29.85-59.26-58.83-18.88-24.52-41.37-62.24-41.37-102.68a102.61,102.61,0,0,1,16.32-55.67A7.5,7.5,0,0,0,156.77,169a117.52,117.52,0,0,0-18.71,63.79c0,35.85,15,73.48,44.48,111.83C211.32,382,241.61,404.1,245,406.49a19.09,19.09,0,0,0,22.06.06c28.83-20.32,104.22-90.39,106.85-169.49A117.84,117.84,0,0,0,256.32,114.8Z"/><path class="cls-3" d="M311.72,232.77A55.76,55.76,0,1,0,256,288.54,55.83,55.83,0,0,0,311.72,232.77Zm-96.52,0A40.76,40.76,0,1,1,256,273.53,40.81,40.81,0,0,1,215.2,232.77Z"/></g></g></svg>